<svg width="179" height="40" viewBox="0 0 179 40" fill="none" xmlns="http://www.w3.org/2000/svg">
<g clip-path="url(#clip0_109_2783)">
<path d="M20.8974 3.81951V20.4565C20.2001 20.139 19.412 19.9589 18.5762 19.9589C15.7439 19.9589 13.4481 22.0147 13.4481 24.5511C13.4481 27.0876 15.7439 29.1437 18.5762 29.1437C21.4085 29.1437 23.7044 27.0876 23.7044 24.5511V9.90966C29.1887 11.4781 28.1881 16.0691 27.9547 16.9087C27.9309 16.9944 27.9448 17.0863 27.9943 17.1606C28.0827 17.2931 28.2589 17.3373 28.3968 17.2578C29.2722 16.753 30.0743 14.8801 30.0743 14.8801C31.8015 10.3417 28.967 7.13307 27.3477 5.40404C26.9333 4.96171 26.4299 4.47061 25.8375 3.93072C25.1406 3.29562 25.0877 2.21267 25.7193 1.51189C25.8946 1.31735 26.1121 1.16595 26.3549 1.0694C31.2283 -0.868409 36.1529 0.110614 40.1897 3.87869C45.2099 8.9608 45.2099 17.2301 40.1897 22.3126L40.1834 22.319L22.8847 39.5818C22.6338 39.8321 22.3072 39.957 21.9806 39.957C21.6539 39.957 21.327 39.8321 21.0765 39.5818L3.77778 22.319L3.77141 22.3126C1.33945 19.8506 6.10352e-05 16.5772 6.10352e-05 13.0956C6.10352e-05 9.61373 1.42859 6.18796 3.77141 3.87869C8.57125 -0.552369 14.8348 -1.10486 20.0994 2.36891C20.5885 2.69161 20.8974 3.23011 20.8974 3.81951Z" fill="url(#paint0_linear_109_2783)"/>
<path fill-rule="evenodd" clip-rule="evenodd" d="M64.4577 20.3058V20.0938C64.4577 18.9003 64.191 18.0445 63.6576 17.5263C63.3753 17.2593 63.0027 17.0512 62.5399 16.902C62.0771 16.7529 61.4928 16.6704 60.7868 16.6547C59.9397 16.6233 59.2455 16.6783 58.7043 16.8196C58.1631 16.9609 57.7277 17.1651 57.3983 17.432C57.0846 17.699 56.8492 18.0445 56.6924 18.4685C56.5355 18.8925 56.457 19.4421 56.457 20.1174V20.3058H64.4577ZM68.058 26.6187C68.058 26.6815 68.0423 26.7208 68.011 26.7365C67.9953 26.7679 67.956 26.7836 67.8933 26.7836C67.5325 26.7679 67.1128 26.7129 66.6344 26.6187C66.1559 26.5245 65.7441 26.3203 65.399 26.0063C64.9911 25.6451 64.7322 25.2172 64.6224 24.7225C64.5126 24.2278 64.4577 23.7371 64.4577 23.2503V23.2032H56.457V23.2738C56.457 23.7606 56.4061 24.2514 56.3041 24.746C56.2021 25.2407 55.9472 25.6686 55.5393 26.0298C55.1785 26.3439 54.7589 26.548 54.2804 26.6423C53.8019 26.7365 53.3823 26.7914 53.0215 26.8071C53.0058 26.8071 52.9666 26.7914 52.9038 26.76C52.8724 26.7286 52.8568 26.6894 52.8568 26.6423V20.1174C52.8724 18.8925 53.1195 17.7854 53.598 16.796C54.0765 15.8067 54.7628 15.0215 55.657 14.4405C56.1904 14.095 56.8179 13.8359 57.5395 13.6632C58.2611 13.4904 59.1553 13.3962 60.2221 13.3805H60.2927C61.4692 13.3648 62.4536 13.4433 63.2458 13.616C64.0381 13.7888 64.7087 14.0557 65.2578 14.4169C66.152 15.0137 66.8422 15.8028 67.3285 16.7843C67.8149 17.7657 68.058 18.8689 68.058 20.0938V26.6187ZM85.3065 13.3334C85.3536 13.3334 85.3928 13.3491 85.4242 13.3805C85.4712 13.4276 85.4948 13.4747 85.4948 13.5218V23.2503C85.4948 23.4073 85.4869 23.5486 85.4712 23.6743C85.4555 23.7999 85.4477 23.9255 85.4477 24.0512C85.4163 24.8049 85.1339 25.4488 84.6006 25.9827C84.0672 26.5166 83.4162 26.7836 82.6475 26.7836C82.1925 26.7836 81.769 26.6854 81.3768 26.4892C80.9846 26.2929 80.6551 26.0141 80.3884 25.6529L74.1526 17.6205V23.2267C74.1526 23.7135 74.1017 24.2043 73.9997 24.6989C73.8977 25.1936 73.6428 25.6215 73.2349 25.9827C72.8741 26.2968 72.4545 26.5049 71.976 26.6069C71.4975 26.709 71.0779 26.7679 70.7171 26.7836C70.7014 26.7836 70.6622 26.7679 70.5994 26.7365C70.568 26.7051 70.5523 26.6658 70.5523 26.6187V16.8667C70.5523 16.7097 70.5563 16.5723 70.5641 16.4545C70.5719 16.3367 70.5837 16.215 70.5994 16.0894C70.6308 15.3042 70.9131 14.6525 71.4465 14.1343C71.7132 13.883 72.0152 13.6867 72.3525 13.5454C72.6898 13.404 73.0388 13.3334 73.3996 13.3334C73.8546 13.3334 74.2781 13.4315 74.6703 13.6278C75.0625 13.8241 75.392 14.1029 75.6586 14.464V14.4876L81.8945 22.4965V16.8903C81.8945 16.4034 81.9454 15.9127 82.0474 15.418C82.1494 14.9234 82.4043 14.4954 82.8122 14.1343C83.173 13.8202 83.5887 13.616 84.0593 13.5218C84.53 13.4276 84.9457 13.3648 85.3065 13.3334ZM103.943 13.3569C103.975 13.3569 104.022 13.3726 104.085 13.404C104.116 13.4669 104.124 13.514 104.108 13.5454C104.092 13.8594 104.037 14.2285 103.943 14.6525C103.849 15.0765 103.645 15.4455 103.332 15.7596C102.971 16.1208 102.543 16.3446 102.049 16.4309C101.555 16.5173 101.065 16.5605 100.578 16.5605H97.8723V23.2503C97.8723 23.7371 97.8213 24.2278 97.7193 24.7225C97.6173 25.2172 97.3624 25.6451 96.9545 26.0063C96.5937 26.3203 96.1741 26.5245 95.6956 26.6187C95.2171 26.7129 94.7975 26.7679 94.4367 26.7836C94.3739 26.7836 94.3347 26.7679 94.319 26.7365C94.2876 26.7051 94.272 26.6658 94.272 26.6187V16.5605L88.5303 16.5369C88.4832 16.5369 88.444 16.5212 88.4126 16.4898C88.3813 16.4584 88.3656 16.4192 88.3656 16.372C88.397 16.0423 88.4597 15.6693 88.5538 15.2532C88.648 14.837 88.8519 14.4719 89.1656 14.1578C89.5108 13.7966 89.9265 13.5729 90.4128 13.4865C90.8991 13.4001 91.3933 13.3569 91.8953 13.3569H103.943ZM120.933 13.4276C120.98 13.3962 121.019 13.4119 121.051 13.4747C121.082 13.5061 121.098 13.5454 121.098 13.5925V26.6658C121.098 26.7129 121.082 26.7522 121.051 26.7836C121.019 26.815 120.98 26.8307 120.933 26.8307C120.572 26.815 120.156 26.76 119.686 26.6658C119.215 26.5716 118.799 26.3674 118.439 26.0534C118.031 25.6922 117.772 25.2643 117.662 24.7696C117.552 24.2749 117.497 23.7842 117.497 23.2974V21.7192H110.014V23.2974C110.014 23.7842 109.963 24.2749 109.861 24.7696C109.76 25.2643 109.505 25.6922 109.097 26.0534C108.736 26.3674 108.32 26.5716 107.85 26.6658C107.379 26.76 106.963 26.815 106.602 26.8307C106.555 26.8307 106.516 26.815 106.485 26.7836C106.453 26.7679 106.438 26.7286 106.438 26.6658V13.5925C106.438 13.5297 106.453 13.4904 106.485 13.4747C106.516 13.4119 106.555 13.3962 106.602 13.4276C106.791 13.4276 106.991 13.4394 107.202 13.4629C107.414 13.4865 107.634 13.5257 107.861 13.5807C108.089 13.6357 108.308 13.7142 108.52 13.8163C108.732 13.9183 108.924 14.0479 109.097 14.2049C109.505 14.5661 109.76 14.994 109.861 15.4887C109.963 15.9834 110.014 16.4741 110.014 16.9609V18.5627H117.497V16.9609C117.497 16.4741 117.552 15.9834 117.662 15.4887C117.772 14.994 118.031 14.5661 118.439 14.2049C118.784 13.8909 119.196 13.6867 119.674 13.5925C120.153 13.4983 120.572 13.4433 120.933 13.4276ZM138.629 23.5094C138.676 23.5094 138.715 23.5329 138.746 23.58C138.778 23.5957 138.793 23.635 138.793 23.6978C138.778 24.0276 138.723 24.4045 138.629 24.8285C138.534 25.2525 138.331 25.6294 138.017 25.9592C137.656 26.3203 137.228 26.5441 136.734 26.6305C136.24 26.7169 135.75 26.76 135.264 26.76H131.852C130.691 26.76 129.71 26.6776 128.91 26.5127C128.11 26.3478 127.435 26.0848 126.886 25.7236C125.992 25.1269 125.302 24.3338 124.816 23.3445C124.329 22.3551 124.086 21.2402 124.086 19.9996C124.086 18.8218 124.329 17.7383 124.816 16.7489C125.302 15.7596 125.992 14.9744 126.886 14.3934H126.91C127.475 14.0322 128.145 13.7692 128.922 13.6043C129.698 13.4394 130.675 13.3569 131.852 13.3569H138.629C138.676 13.3569 138.715 13.3726 138.746 13.404C138.778 13.4354 138.793 13.4747 138.793 13.5218C138.778 13.8516 138.723 14.2246 138.629 14.6407C138.534 15.0569 138.331 15.4298 138.017 15.7596C137.656 16.1208 137.228 16.3446 136.734 16.4309C136.24 16.5173 135.75 16.5605 135.264 16.5605H132.134C130.487 16.5605 129.342 16.8117 128.698 17.3143C128.322 17.5969 128.055 17.9895 127.898 18.492H137.334C137.397 18.492 137.436 18.5077 137.452 18.5392C137.483 18.5706 137.499 18.6098 137.499 18.6569C137.483 18.971 137.428 19.3361 137.334 19.7523C137.24 20.1684 137.036 20.5335 136.723 20.8476C136.377 21.2088 135.966 21.4326 135.487 21.5189C135.009 21.6053 134.542 21.6485 134.087 21.6485H127.922C128.126 22.308 128.526 22.7713 129.122 23.0383C129.749 23.3523 130.753 23.5094 132.134 23.5094H138.629ZM159.666 14.1578C160.183 14.676 160.466 15.3199 160.513 16.0894C160.513 16.215 160.517 16.3406 160.525 16.4663C160.532 16.5919 160.536 16.7332 160.536 16.8903V26.6187C160.536 26.6658 160.521 26.7051 160.489 26.7365C160.474 26.7679 160.434 26.7836 160.372 26.7836C160.011 26.7679 159.591 26.7129 159.113 26.6187C158.634 26.5245 158.222 26.3203 157.877 26.0063C157.469 25.6451 157.211 25.2172 157.101 24.7225C156.991 24.2278 156.936 23.7371 156.936 23.2503V17.644L151.453 24.7343C151.406 24.7814 151.359 24.8049 151.312 24.8049C151.249 24.8049 151.21 24.7814 151.194 24.7343L145.688 17.644V23.2503C145.688 23.7371 145.637 24.2278 145.535 24.7225C145.433 25.2172 145.178 25.6451 144.77 26.0063C144.409 26.3203 143.99 26.5245 143.511 26.6187C143.033 26.7129 142.613 26.7679 142.252 26.7836C142.205 26.7836 142.166 26.7679 142.135 26.7365C142.103 26.7051 142.088 26.6658 142.088 26.6187V16.8903C142.088 16.7332 142.092 16.5919 142.099 16.4663C142.107 16.3406 142.119 16.215 142.135 16.0894C142.166 15.3199 142.449 14.676 142.982 14.1578C143.515 13.6239 144.166 13.3569 144.935 13.3569C145.39 13.3569 145.813 13.4551 146.206 13.6514C146.598 13.8477 146.927 14.1264 147.194 14.4876L151.312 19.7876L155.43 14.4876H155.454C155.72 14.1264 156.046 13.8477 156.43 13.6514C156.814 13.4551 157.234 13.3569 157.689 13.3569C158.442 13.3569 159.101 13.6239 159.666 14.1578ZM167.949 16.4898C167.682 16.4898 167.451 16.5919 167.254 16.796C167.058 17.0002 166.96 17.2357 166.96 17.5027C166.96 17.7697 167.058 18.0013 167.254 18.1976C167.451 18.3939 167.682 18.492 167.949 18.492L173.784 18.4685C173.816 18.4685 173.831 18.4763 173.831 18.492C174.396 18.492 174.926 18.602 175.42 18.8218C175.914 19.0417 176.349 19.34 176.726 19.7169C177.102 20.0938 177.396 20.5296 177.608 21.0243C177.82 21.5189 177.926 22.0489 177.926 22.6143C177.926 23.1796 177.816 23.7135 177.597 24.216C177.377 24.7186 177.083 25.1583 176.714 25.5352C176.345 25.912 175.91 26.2104 175.408 26.4303C174.906 26.6501 174.373 26.76 173.808 26.76H163.713C163.666 26.76 163.627 26.7443 163.595 26.7129C163.564 26.6501 163.548 26.603 163.548 26.5716C163.564 26.2575 163.615 25.8963 163.701 25.488C163.788 25.0797 163.988 24.7186 164.301 24.4045C164.662 24.0433 165.058 23.8234 165.49 23.7449C165.921 23.6664 166.341 23.6272 166.749 23.6272H173.549C173.816 23.6272 174.047 23.529 174.243 23.3327C174.439 23.1364 174.537 22.8969 174.537 22.6143C174.537 22.3473 174.439 22.1196 174.243 21.9312C174.047 21.7427 173.816 21.6485 173.549 21.6485H167.666C167.102 21.6485 166.572 21.5386 166.078 21.3187C165.584 21.0989 165.148 20.8005 164.772 20.4236C164.395 20.0467 164.101 19.607 163.89 19.1045C163.678 18.602 163.572 18.068 163.572 17.5027C163.572 16.9374 163.682 16.4035 163.901 15.9009C164.121 15.3984 164.419 14.9587 164.795 14.5818C165.172 14.2049 165.611 13.9066 166.113 13.6867C166.615 13.4669 167.149 13.3569 167.713 13.3569H177.855C177.902 13.3569 177.942 13.3805 177.973 13.4276C178.004 13.4433 178.02 13.4826 178.02 13.5454C178.004 13.8594 177.953 14.2206 177.867 14.6289C177.781 15.0372 177.581 15.3984 177.267 15.7125C176.922 16.058 176.51 16.2739 176.032 16.3603C175.553 16.4466 175.087 16.4898 174.632 16.4898H167.949Z" fill="black"/>
</g>
<defs>
<linearGradient id="paint0_linear_109_2783" x1="43.9549" y1="0.0991211" x2="4.287" y2="43.8444" gradientUnits="userSpaceOnUse">
<stop stop-color="#E02177"/>
<stop offset="1" stop-color="#FF4F24"/>
</linearGradient>
<clipPath id="clip0_109_2783">
<rect width="178.039" height="40" fill="white"/>
</clipPath>
</defs>
</svg>
