<svg width="285" height="40" viewBox="0 0 285 40" fill="none" xmlns="http://www.w3.org/2000/svg">
<g clip-path="url(#clip0_109_2791)">
<path fill-rule="evenodd" clip-rule="evenodd" d="M279.688 40H153.396C150.611 40 148.343 37.7456 148.343 35V5C148.343 2.24439 150.611 0 153.396 0H279.688C282.471 0 284.742 2.24439 284.742 5V35C284.742 37.7456 282.471 40 279.688 40Z" fill="black"/>
<path fill-rule="evenodd" clip-rule="evenodd" d="M279.688 0.800499C282.024 0.800499 283.937 2.68828 283.937 5V35C283.937 37.3117 282.037 39.1995 279.688 39.1995H153.396C151.06 39.1995 149.148 37.3117 149.148 35V5C149.148 2.68828 151.048 0.800499 153.396 0.800499H279.688ZM279.688 0H153.396C150.611 0 148.343 2.25436 148.343 5V35C148.343 37.7556 150.611 40 153.396 40H279.688C282.471 40 284.742 37.7556 284.742 35V5C284.742 2.25436 282.471 0 279.688 0Z" fill="#A6A6A6"/>
<path d="M220.198 13.232C219.288 13.232 218.52 12.9152 217.912 12.2918C217.31 11.6858 216.974 10.8504 216.989 9.99754C216.989 9.08732 217.3 8.31675 217.912 7.70577C218.517 7.08233 219.285 6.76562 220.196 6.76562C221.097 6.76562 221.865 7.08233 222.482 7.70577C223.094 8.3367 223.405 9.10727 223.405 9.99754C223.395 10.9103 223.084 11.6808 222.482 12.2893C221.877 12.9177 221.109 13.232 220.198 13.232ZM193.096 13.232C192.205 13.232 191.432 12.9202 190.8 12.3043C190.172 11.6908 189.854 10.9152 189.854 10C189.854 9.08483 190.172 8.30927 190.8 7.6958C191.419 7.07984 192.192 6.76812 193.096 6.76812C193.537 6.76812 193.966 6.8554 194.378 7.03246C194.782 7.20453 195.111 7.43894 195.354 7.72572L195.414 7.79804L194.734 8.46139L194.664 8.37909C194.28 7.92523 193.766 7.70328 193.086 7.70328C192.478 7.70328 191.949 7.91774 191.512 8.34168C191.073 8.76812 190.85 9.32672 190.85 10.0025C190.85 10.6783 191.073 11.2369 191.512 11.6634C191.949 12.0873 192.478 12.3018 193.086 12.3018C193.733 12.3018 194.278 12.0873 194.702 11.6634C194.953 11.414 195.108 11.0649 195.163 10.6235H192.983V9.69081H196.099L196.112 9.7756C196.134 9.93271 196.157 10.0948 196.157 10.2444C196.157 11.1048 195.896 11.8005 195.379 12.3143C194.792 12.9227 194.024 13.232 193.096 13.232ZM229.131 13.0998H228.17L225.227 8.41899L225.252 9.26188V13.0973H224.291V6.90029H225.388L225.418 6.94767L228.185 11.3566L228.16 10.5162V6.90029H229.131V13.0998ZM212.977 13.0998H212.003V7.83296H210.314V6.90029H214.663V7.83296H212.974V13.0998H212.977ZM209.521 13.0998H208.55V6.90029H209.521V13.0998ZM204.064 13.0998H203.093V7.83296H201.404V6.90029H205.752V7.83296H204.064V13.0998ZM200.789 13.0898H197.065V6.90029H200.789V7.83296H198.039V9.5337H200.521V10.4564H198.039V12.1571H200.789V13.0898ZM218.625 11.6509C219.059 12.0823 219.586 12.2993 220.198 12.2993C220.828 12.2993 221.343 12.0873 221.772 11.6509C222.198 11.227 222.414 10.6709 222.414 10C222.414 9.32922 222.198 8.77061 221.774 8.34917C221.34 7.91774 220.811 7.70079 220.201 7.70079C219.571 7.70079 219.057 7.91276 218.63 8.34917C218.204 8.77311 217.988 9.32922 217.988 10C217.988 10.6709 218.201 11.2295 218.625 11.6509Z" fill="white"/>
<path fill-rule="evenodd" clip-rule="evenodd" d="M216.899 21.7557C214.528 21.7557 212.605 23.5437 212.605 26.01C212.605 28.4539 214.54 30.2644 216.899 30.2644C219.27 30.2644 221.192 28.4639 221.192 26.01C221.192 23.5437 219.27 21.7557 216.899 21.7557ZM216.899 28.5786C215.601 28.5786 214.485 27.5113 214.485 26.0001C214.485 24.4664 215.604 23.4215 216.899 23.4215C218.196 23.4215 219.313 24.4664 219.313 26.0001C219.315 27.5212 218.196 28.5786 216.899 28.5786ZM207.532 21.7557C205.16 21.7557 203.238 23.5437 203.238 26.01C203.238 28.4539 205.173 30.2644 207.532 30.2644C209.903 30.2644 211.825 28.4639 211.825 26.01C211.825 23.5437 209.9 21.7557 207.532 21.7557ZM207.532 28.5786C206.234 28.5786 205.118 27.5113 205.118 26.0001C205.118 24.4664 206.237 23.4215 207.532 23.4215C208.829 23.4215 209.946 24.4664 209.946 26.0001C209.946 27.5212 208.829 28.5786 207.532 28.5786ZM196.385 23.0549V24.8554H200.734C200.601 25.8654 200.265 26.611 199.75 27.1222C199.113 27.7557 198.129 28.4439 196.395 28.4439C193.723 28.4439 191.633 26.2993 191.633 23.6434C191.633 20.9876 193.723 18.8429 196.395 18.8429C197.838 18.8429 198.89 19.409 199.67 20.1322L200.955 18.8554C199.871 17.823 198.428 17.0325 196.406 17.0325C192.739 17.0325 189.663 20.0001 189.663 23.6335C189.663 27.2769 192.737 30.2345 196.406 30.2345C198.385 30.2345 199.871 29.5911 201.045 28.3791C202.242 27.1896 202.621 25.5113 202.621 24.1572C202.621 23.7357 202.588 23.3567 202.521 23.035H196.383C196.385 23.0325 196.385 23.0549 196.385 23.0549ZM241.976 24.4564C241.618 23.5013 240.534 21.7457 238.31 21.7457C236.107 21.7457 234.276 23.4689 234.276 26.0001C234.276 28.3891 236.087 30.2544 238.524 30.2544C240.481 30.2544 241.62 29.0649 242.089 28.3666L240.637 27.3991C240.155 28.1098 239.485 28.5761 238.534 28.5761C237.573 28.5761 236.9 28.1422 236.454 27.2868L242.177 24.9302C242.177 24.9327 241.976 24.4564 241.976 24.4564ZM236.14 25.8779C236.095 24.2345 237.425 23.3991 238.376 23.3991C239.126 23.3991 239.751 23.7656 239.964 24.2993L236.14 25.8779ZM231.49 30.0001H233.37V17.5013H231.49V30.0001ZM228.404 22.7008H228.336C227.912 22.1996 227.107 21.7457 226.078 21.7457C223.942 21.7457 221.975 23.6135 221.975 26.0125C221.975 28.4015 223.932 30.2469 226.078 30.2469C227.094 30.2469 227.912 29.7906 228.336 29.2794H228.404V29.8903C228.404 31.5138 227.531 32.3891 226.123 32.3891C224.971 32.3891 224.256 31.5661 223.965 30.8779L222.331 31.5562C222.801 32.6784 224.053 34.0674 226.12 34.0674C228.324 34.0674 230.19 32.7781 230.19 29.6335V22.0001H228.414V22.7008C228.416 22.7008 228.404 22.7008 228.404 22.7008ZM226.246 28.5786C224.949 28.5786 223.865 27.5013 223.865 26.0125C223.865 24.5113 224.949 23.424 226.246 23.424C227.531 23.424 228.527 24.5237 228.527 26.0125C228.539 27.5013 227.533 28.5786 226.246 28.5786ZM250.777 17.5013H246.282V30.0001H248.162V25.2669H250.779C252.859 25.2669 254.904 23.7681 254.904 21.3891C254.904 19.01 252.867 17.5013 250.777 17.5013ZM250.832 23.5212H248.159V19.232H250.832C252.239 19.232 253.035 20.3866 253.035 21.3766C253.035 22.3567 252.229 23.5212 250.832 23.5212ZM262.437 21.7332C261.072 21.7332 259.664 22.3342 259.082 23.6434L260.748 24.3317C261.107 23.6434 261.765 23.409 262.46 23.409C263.433 23.409 264.417 23.9876 264.44 25.02V25.1522C264.103 24.9626 263.366 24.6734 262.482 24.6734C260.683 24.6734 258.859 25.6509 258.859 27.4838C258.859 29.1621 260.334 30.2395 261.978 30.2395C263.24 30.2395 263.935 29.6734 264.369 29.0175H264.437V29.9851H266.249V25.1971C266.249 22.9676 264.583 21.7332 262.437 21.7332ZM262.201 28.5786C261.586 28.5786 260.726 28.2794 260.726 27.5113C260.726 26.5437 261.8 26.1771 262.716 26.1771C263.544 26.1771 263.935 26.3542 264.427 26.5986C264.291 27.7207 263.338 28.5686 262.201 28.5786ZM272.858 22.0001L270.7 27.4215H270.632L268.397 22.0001H266.374L269.729 29.5786L267.817 33.7906H269.774L274.936 22.0001H272.858ZM255.941 30.0001H257.82V17.5013H255.941V30.0001Z" fill="white"/>
<path fill-rule="evenodd" clip-rule="evenodd" d="M158.842 7.53364C158.551 7.84536 158.382 8.32167 158.382 8.94511V31.0573C158.382 31.6808 158.551 32.1571 158.852 32.4563L158.929 32.5237L171.395 20.1346V19.8578L158.919 7.46631L158.842 7.53364Z" fill="url(#paint0_linear_109_2791)"/>
<path fill-rule="evenodd" clip-rule="evenodd" d="M175.543 24.2768L171.385 20.1446V19.8553L175.543 15.7231L175.634 15.778L180.552 18.5561C181.96 19.3441 181.96 20.6458 180.552 21.4438L175.634 24.2219L175.543 24.2768Z" fill="url(#paint1_linear_109_2791)"/>
<path fill-rule="evenodd" clip-rule="evenodd" d="M175.633 24.2219L171.385 20L158.841 32.4663C159.3 32.9551 160.071 33.01 160.931 32.5337L175.633 24.2219Z" fill="url(#paint2_linear_109_2791)"/>
<path fill-rule="evenodd" clip-rule="evenodd" d="M175.633 15.7781L160.931 7.47882C160.071 6.99004 159.298 7.05737 158.841 7.54615L171.385 20L175.633 15.7781Z" fill="url(#paint3_linear_109_2791)"/>
<path opacity="0.2" fill-rule="evenodd" clip-rule="evenodd" d="M175.543 24.1322L160.942 32.3766C160.126 32.8429 159.399 32.8105 158.929 32.3866L158.852 32.4639L158.929 32.5312C159.399 32.9527 160.126 32.9876 160.942 32.5212L175.644 24.222L175.543 24.1322Z" fill="black"/>
<path opacity="0.12" fill-rule="evenodd" clip-rule="evenodd" d="M180.552 21.2993L175.531 24.1322L175.621 24.2219L180.539 21.4439C181.244 21.0449 181.591 20.5212 181.591 20C181.548 20.4788 181.189 20.9327 180.552 21.2993Z" fill="black"/>
<path opacity="0.25" fill-rule="evenodd" clip-rule="evenodd" d="M160.932 7.62342L180.552 18.7007C181.189 19.0573 181.548 19.5237 181.603 20C181.603 19.4788 181.257 18.9551 180.552 18.5561L160.932 7.47878C159.524 6.67828 158.382 7.34661 158.382 8.94511V9.08975C158.382 7.48875 159.524 6.83289 160.932 7.62342Z" fill="white"/>
</g>
<g clip-path="url(#clip1_109_2791)">
<path d="M131.007 40H4.75841C2.1352 40 0 37.872 0 35.267V4.726C0 2.12 2.1352 0 4.75841 0H131.007C133.629 0 135.84 2.12 135.84 4.726V35.267C135.84 37.872 133.629 40 131.007 40Z" fill="#A6A6A6"/>
<path d="M134.866 35.268C134.866 37.384 133.141 39.098 131.008 39.098H4.75851C2.62633 39.098 0.89563 37.384 0.89563 35.268V4.72501C0.89563 2.61001 2.62633 0.890015 4.75851 0.890015H131.007C133.141 0.890015 134.865 2.61001 134.865 4.72501L134.866 35.268Z" fill="black"/>
<path d="M30.3155 19.784C30.2863 16.561 32.9709 14.993 33.0937 14.92C31.5733 12.717 29.2167 12.416 28.3886 12.392C26.4094 12.185 24.4895 13.569 23.4813 13.569C22.4529 13.569 20.9003 12.412 19.227 12.446C17.0737 12.479 15.0592 13.718 13.9544 15.642C11.6743 19.565 13.3748 25.33 15.5593 28.5009C16.652 30.0539 17.9289 31.7879 19.6003 31.7269C21.2354 31.6599 21.8462 30.691 23.8194 30.691C25.7744 30.691 26.348 31.7269 28.0525 31.688C29.8074 31.66 30.9122 30.128 31.9667 28.561C33.2295 26.781 33.7367 25.028 33.7568 24.938C33.7155 24.924 30.3487 23.647 30.3155 19.784Z" fill="white"/>
<path d="M27.0957 10.306C27.9751 9.21304 28.5768 7.72604 28.4098 6.21704C27.1369 6.27304 25.5451 7.09204 24.6284 8.16104C23.8174 9.10304 23.0929 10.647 23.2801 12.099C24.7099 12.205 26.178 11.382 27.0957 10.306Z" fill="white"/>
<path d="M53.9786 31.5039H51.6935L50.4418 27.5949H46.0909L44.8985 31.5039H42.6738L46.9844 18.1959H49.6469L53.9786 31.5039ZM50.0644 25.9549L48.9325 22.4799C48.8127 22.1249 48.5883 21.2889 48.2573 19.9729H48.217C48.0852 20.5389 47.8729 21.3749 47.5811 22.4799L46.4692 25.9549H50.0644Z" fill="white"/>
<path d="M65.0644 26.5879C65.0644 28.2199 64.6207 29.5099 63.7332 30.4569C62.9383 31.2999 61.9512 31.7209 60.7729 31.7209C59.501 31.7209 58.5874 31.2669 58.0309 30.3589H57.9907V35.4139H55.8454V25.0669C55.8454 24.0409 55.8183 22.9879 55.7659 21.9079H57.6526L57.7723 23.4289H57.8126C58.528 22.2829 59.6137 21.7109 61.0707 21.7109C62.2098 21.7109 63.1606 22.1579 63.9213 23.0529C64.6841 23.9489 65.0644 25.1269 65.0644 26.5879ZM62.8789 26.6659C62.8789 25.7319 62.6676 24.9619 62.243 24.3559C61.7791 23.7239 61.1562 23.4079 60.3754 23.4079C59.8461 23.4079 59.3652 23.5839 58.9355 23.9309C58.5049 24.2809 58.2231 24.7379 58.0913 25.3039C58.0249 25.5679 57.9917 25.7839 57.9917 25.9539V27.5539C57.9917 28.2519 58.207 28.8409 58.6377 29.3219C59.0683 29.8029 59.6278 30.0429 60.3161 30.0429C61.124 30.0429 61.7529 29.7329 62.2027 29.1149C62.6535 28.4959 62.8789 27.6799 62.8789 26.6659Z" fill="white"/>
<path d="M76.1696 26.5879C76.1696 28.2199 75.7259 29.5099 74.8374 30.4569C74.0435 31.2999 73.0564 31.7209 71.8781 31.7209C70.6062 31.7209 69.6926 31.2669 69.1371 30.3589H69.0969V35.4139H66.9516V25.0669C66.9516 24.0409 66.9245 22.9879 66.8721 21.9079H68.7588L68.8785 23.4289H68.9188C69.6332 22.2829 70.7189 21.7109 72.1769 21.7109C73.315 21.7109 74.2658 22.1579 75.0286 23.0529C75.7882 23.9489 76.1696 25.1269 76.1696 26.5879ZM73.9841 26.6659C73.9841 25.7319 73.7718 24.9619 73.3472 24.3559C72.8833 23.7239 72.2625 23.4079 71.4806 23.4079C70.9503 23.4079 70.4704 23.5839 70.0397 23.9309C69.6091 24.2809 69.3283 24.7379 69.1965 25.3039C69.1311 25.5679 69.0969 25.7839 69.0969 25.9539V27.5539C69.0969 28.2519 69.3122 28.8409 69.7409 29.3219C70.1715 29.8019 70.731 30.0429 71.4213 30.0429C72.2293 30.0429 72.8581 29.7329 73.3079 29.1149C73.7587 28.4959 73.9841 27.6799 73.9841 26.6659Z" fill="white"/>
<path d="M88.5866 27.772C88.5866 28.904 88.1912 29.825 87.3973 30.536C86.5249 31.313 85.3104 31.701 83.7498 31.701C82.3088 31.701 81.1537 31.425 80.2793 30.872L80.7764 29.095C81.7182 29.661 82.7516 29.945 83.8775 29.945C84.6855 29.945 85.3144 29.763 85.7662 29.401C86.216 29.039 86.4404 28.553 86.4404 27.947C86.4404 27.407 86.2552 26.952 85.8839 26.583C85.5147 26.214 84.8978 25.871 84.0365 25.554C81.692 24.685 80.5208 23.412 80.5208 21.738C80.5208 20.644 80.9313 19.747 81.7534 19.049C82.5725 18.35 83.6652 18.001 85.0317 18.001C86.2502 18.001 87.2625 18.212 88.0705 18.633L87.5341 20.371C86.7795 19.963 85.9262 19.759 84.9713 19.759C84.2166 19.759 83.627 19.944 83.2044 20.312C82.8472 20.641 82.6681 21.042 82.6681 21.517C82.6681 22.043 82.8723 22.478 83.2829 22.82C83.6401 23.136 84.2891 23.478 85.2309 23.847C86.383 24.308 87.2293 24.847 87.7736 25.465C88.316 26.081 88.5866 26.852 88.5866 27.772Z" fill="white"/>
<path d="M95.6792 23.5078H93.3146V28.1668C93.3146 29.3518 93.7312 29.9438 94.5664 29.9438C94.9497 29.9438 95.2677 29.9108 95.5192 29.8448L95.5786 31.4638C95.156 31.6208 94.5996 31.6998 93.9103 31.6998C93.0631 31.6998 92.401 31.4428 91.923 30.9298C91.4471 30.4158 91.2076 29.5538 91.2076 28.3428V23.5058H89.7989V21.9058H91.2076V20.1488L93.3146 19.5168V21.9058H95.6792V23.5078Z" fill="white"/>
<path d="M106.348 26.6269C106.348 28.1019 105.924 29.3129 105.076 30.2599C104.188 31.2349 103.009 31.7209 101.539 31.7209C100.122 31.7209 98.9938 31.2539 98.1526 30.3199C97.3114 29.3859 96.8908 28.2069 96.8908 26.7859C96.8908 25.2989 97.3235 24.0809 98.1919 23.1339C99.0582 22.1859 100.227 21.7119 101.698 21.7119C103.114 21.7119 104.254 22.1789 105.115 23.1139C105.938 24.0209 106.348 25.1919 106.348 26.6269ZM104.123 26.6959C104.123 25.8109 103.932 25.0519 103.547 24.4189C103.097 23.6529 102.454 23.2709 101.621 23.2709C100.759 23.2709 100.104 23.6539 99.6539 24.4189C99.2685 25.0529 99.0783 25.8239 99.0783 26.7359C99.0783 27.6209 99.2685 28.3799 99.6539 29.0119C100.118 29.7779 100.766 30.1599 101.602 30.1599C102.421 30.1599 103.064 29.7699 103.528 28.9919C103.923 28.3469 104.123 27.5799 104.123 26.6959Z" fill="white"/>
<path d="M113.322 23.7829C113.109 23.7439 112.883 23.7239 112.645 23.7239C111.891 23.7239 111.307 24.0069 110.897 24.5739C110.539 25.0739 110.36 25.7059 110.36 26.4689V31.5039H108.216L108.236 24.9299C108.236 23.8239 108.209 22.8169 108.156 21.9089H110.024L110.103 23.7449H110.162C110.389 23.1139 110.746 22.6059 111.235 22.2249C111.713 21.8819 112.229 21.7109 112.785 21.7109C112.984 21.7109 113.163 21.7249 113.322 21.7499V23.7829Z" fill="white"/>
<path d="M122.916 26.2519C122.916 26.6339 122.89 26.9559 122.837 27.2189H116.401C116.426 28.1669 116.737 28.8919 117.335 29.3919C117.877 29.8389 118.579 30.0629 119.44 30.0629C120.393 30.0629 121.262 29.9119 122.044 29.6089L122.38 31.0889C121.467 31.4849 120.388 31.6819 119.143 31.6819C117.646 31.6819 116.471 31.2439 115.615 30.3689C114.762 29.4939 114.335 28.3189 114.335 26.8449C114.335 25.3979 114.732 24.1929 115.528 23.2319C116.361 22.2059 117.487 21.6929 118.904 21.6929C120.295 21.6929 121.349 22.2059 122.064 23.2319C122.631 24.0469 122.916 25.0549 122.916 26.2519ZM120.87 25.6989C120.884 25.0669 120.744 24.5209 120.453 24.0599C120.082 23.4669 119.512 23.1709 118.744 23.1709C118.042 23.1709 117.472 23.4599 117.036 24.0399C116.679 24.5009 116.467 25.0539 116.401 25.6979H120.87V25.6989Z" fill="white"/>
<path d="M49.355 10.0091C49.355 11.1861 48.9998 12.0721 48.2904 12.6671C47.6334 13.2161 46.6996 13.4911 45.4901 13.4911C44.8904 13.4911 44.3772 13.4651 43.9476 13.4131V6.98207C44.508 6.89207 45.1118 6.84607 45.7638 6.84607C46.9159 6.84607 47.7843 7.09507 48.3699 7.59307C49.026 8.15607 49.355 8.96107 49.355 10.0091ZM48.2431 10.0381C48.2431 9.27507 48.0399 8.69007 47.6334 8.28207C47.2268 7.87507 46.6332 7.67107 45.8513 7.67107C45.5193 7.67107 45.2365 7.69307 45.0021 7.73907V12.6281C45.1319 12.6481 45.3694 12.6571 45.7145 12.6571C46.5215 12.6571 47.1443 12.4341 47.583 11.9881C48.0218 11.5421 48.2431 10.8921 48.2431 10.0381Z" fill="white"/>
<path d="M55.2508 11.037C55.2508 11.762 55.0425 12.356 54.6259 12.822C54.1892 13.301 53.6106 13.54 52.8882 13.54C52.1918 13.54 51.6374 13.311 51.2239 12.851C50.8113 12.392 50.605 11.813 50.605 11.115C50.605 10.385 50.8174 9.78605 51.244 9.32105C51.6706 8.85605 52.2442 8.62305 52.9666 8.62305C53.6629 8.62305 54.2224 8.85205 54.646 9.31105C55.0485 9.75705 55.2508 10.333 55.2508 11.037ZM54.157 11.071C54.157 10.636 54.0624 10.263 53.8742 9.95205C53.6529 9.57605 53.3379 9.38805 52.9284 9.38805C52.5048 9.38805 52.1828 9.57605 51.9614 9.95205C51.7723 10.263 51.6787 10.642 51.6787 11.09C51.6787 11.525 51.7733 11.898 51.9614 12.209C52.1898 12.585 52.5078 12.773 52.9183 12.773C53.3208 12.773 53.6368 12.582 53.8642 12.199C54.0594 11.882 54.157 11.506 54.157 11.071Z" fill="white"/>
<path d="M63.155 8.71899L61.6708 13.433H60.7049L60.0901 11.386C59.9341 10.875 59.8073 10.367 59.7087 9.86299H59.6896C59.598 10.381 59.4712 10.888 59.3082 11.386L58.6552 13.433H57.6782L56.2825 8.71899H57.3662L57.9025 10.96C58.0323 11.49 58.139 11.995 58.2245 12.473H58.2437C58.3221 12.079 58.4519 11.577 58.6351 10.97L59.3082 8.71999H60.1676L60.8125 10.922C60.9685 11.459 61.0953 11.976 61.1929 12.474H61.2221C61.2935 11.989 61.4012 11.472 61.5441 10.922L62.1196 8.71999H63.155V8.71899Z" fill="white"/>
<path d="M68.6223 13.433H67.5678V10.733C67.5678 9.90099 67.2498 9.48499 66.6119 9.48499C66.2989 9.48499 66.0464 9.599 65.8502 9.828C65.656 10.057 65.5574 10.327 65.5574 10.636V13.432H64.5028V10.066C64.5028 9.652 64.4898 9.203 64.4646 8.717H65.3913L65.4406 9.454H65.4698C65.5926 9.225 65.7757 9.036 66.0162 8.885C66.302 8.709 66.6219 8.62 66.9721 8.62C67.4148 8.62 67.7831 8.762 68.0759 9.047C68.4402 9.396 68.6223 9.917 68.6223 10.609V13.433Z" fill="white"/>
<path d="M71.5302 13.433H70.4767V6.55603H71.5302V13.433Z" fill="white"/>
<path d="M77.7382 11.037C77.7382 11.762 77.5299 12.356 77.1133 12.822C76.6766 13.301 76.097 13.54 75.3756 13.54C74.6783 13.54 74.1238 13.311 73.7113 12.851C73.2987 12.392 73.0925 11.813 73.0925 11.115C73.0925 10.385 73.3048 9.78605 73.7314 9.32105C74.1581 8.85605 74.7316 8.62305 75.4531 8.62305C76.1504 8.62305 76.7088 8.85205 77.1334 9.31105C77.5359 9.75705 77.7382 10.333 77.7382 11.037ZM76.6434 11.071C76.6434 10.636 76.5488 10.263 76.3607 9.95205C76.1403 9.57605 75.8243 9.38805 75.4158 9.38805C74.9912 9.38805 74.6692 9.57605 74.4488 9.95205C74.2597 10.263 74.1661 10.642 74.1661 11.09C74.1661 11.525 74.2607 11.898 74.4488 12.209C74.6773 12.585 74.9952 12.773 75.4058 12.773C75.8083 12.773 76.1232 12.582 76.3506 12.199C76.5468 11.882 76.6434 11.506 76.6434 11.071Z" fill="white"/>
<path d="M82.842 13.433H81.8951L81.8167 12.89H81.7875C81.4635 13.323 81.0016 13.54 80.4019 13.54C79.9542 13.54 79.5919 13.397 79.3192 13.113C79.0717 12.855 78.9479 12.534 78.9479 12.153C78.9479 11.577 79.1894 11.138 79.6754 10.834C80.1604 10.53 80.8426 10.381 81.7211 10.388V10.3C81.7211 9.67905 81.393 9.36905 80.736 9.36905C80.2681 9.36905 79.8555 9.48605 79.4993 9.71805L79.285 9.03005C79.7257 8.75905 80.2701 8.62305 80.9121 8.62305C82.1517 8.62305 82.7736 9.27305 82.7736 10.573V12.309C82.7736 12.78 82.7967 13.155 82.842 13.433ZM81.7472 11.813V11.086C80.584 11.066 80.0025 11.383 80.0025 12.036C80.0025 12.282 80.0689 12.466 80.2047 12.589C80.3405 12.712 80.5136 12.773 80.7199 12.773C80.9513 12.773 81.1677 12.7 81.3649 12.555C81.5631 12.409 81.6848 12.224 81.7301 11.997C81.7412 11.946 81.7472 11.884 81.7472 11.813Z" fill="white"/>
<path d="M88.8338 13.433H87.898L87.8487 12.676H87.8196C87.5207 13.252 87.0116 13.54 86.2961 13.54C85.7246 13.54 85.2487 13.317 84.8713 12.871C84.494 12.425 84.3058 11.846 84.3058 11.135C84.3058 10.372 84.5101 9.75403 84.9206 9.28203C85.3181 8.84203 85.8051 8.62203 86.3847 8.62203C87.0216 8.62203 87.4674 8.83503 87.721 9.26203H87.7411V6.55603H88.7966V12.163C88.7966 12.622 88.8087 13.045 88.8338 13.433ZM87.7411 11.445V10.659C87.7411 10.523 87.731 10.413 87.7119 10.329C87.6525 10.077 87.5247 9.86503 87.3305 9.69403C87.1343 9.52303 86.8979 9.43703 86.6252 9.43703C86.2317 9.43703 85.9238 9.59203 85.6974 9.90303C85.4731 10.214 85.3594 10.611 85.3594 11.096C85.3594 11.562 85.467 11.94 85.6834 12.231C85.9118 12.541 86.2197 12.696 86.6051 12.696C86.9512 12.696 87.2279 12.567 87.4382 12.308C87.6415 12.069 87.7411 11.781 87.7411 11.445Z" fill="white"/>
<path d="M97.8529 11.037C97.8529 11.762 97.6446 12.356 97.228 12.822C96.7913 13.301 96.2137 13.54 95.4903 13.54C94.795 13.54 94.2405 13.311 93.826 12.851C93.4134 12.392 93.2072 11.813 93.2072 11.115C93.2072 10.385 93.4195 9.78605 93.8461 9.32105C94.2727 8.85605 94.8463 8.62305 95.5697 8.62305C96.265 8.62305 96.8255 8.85205 97.2481 9.31105C97.6506 9.75705 97.8529 10.333 97.8529 11.037ZM96.7601 11.071C96.7601 10.636 96.6655 10.263 96.4774 9.95205C96.255 9.57605 95.941 9.38805 95.5305 9.38805C95.1079 9.38805 94.7859 9.57605 94.5635 9.95205C94.3744 10.263 94.2808 10.642 94.2808 11.09C94.2808 11.525 94.3754 11.898 94.5635 12.209C94.7919 12.585 95.1099 12.773 95.5204 12.773C95.9229 12.773 96.2399 12.582 96.4673 12.199C96.6615 11.882 96.7601 11.506 96.7601 11.071Z" fill="white"/>
<path d="M103.523 13.433H102.47V10.733C102.47 9.90099 102.152 9.48499 101.513 9.48499C101.2 9.48499 100.947 9.599 100.752 9.828C100.557 10.057 100.459 10.327 100.459 10.636V13.432H99.4036V10.066C99.4036 9.652 99.3915 9.203 99.3663 8.717H100.292L100.341 9.454H100.371C100.494 9.225 100.677 9.036 100.917 8.885C101.204 8.709 101.523 8.62 101.874 8.62C102.316 8.62 102.684 8.762 102.977 9.047C103.342 9.396 103.523 9.917 103.523 10.609V13.433Z" fill="white"/>
<path d="M110.62 9.50404H109.459V11.794C109.459 12.376 109.665 12.667 110.073 12.667C110.263 12.667 110.42 12.651 110.543 12.618L110.571 13.413C110.362 13.491 110.089 13.53 109.751 13.53C109.335 13.53 109.011 13.404 108.776 13.152C108.541 12.9 108.424 12.476 108.424 11.881V9.50404H107.731V8.71904H108.424V7.85504L109.458 7.54504V8.71804H110.619V9.50404H110.62Z" fill="white"/>
<path d="M116.202 13.433H115.147V10.753C115.147 9.90803 114.829 9.48503 114.192 9.48503C113.703 9.48503 113.369 9.73003 113.185 10.22C113.154 10.323 113.136 10.449 113.136 10.597V13.432H112.083V6.55603H113.136V9.39703H113.156C113.488 8.88003 113.964 8.62203 114.581 8.62203C115.018 8.62203 115.379 8.76403 115.666 9.04903C116.023 9.40403 116.202 9.93203 116.202 10.63V13.433Z" fill="white"/>
<path d="M121.961 10.853C121.961 11.041 121.947 11.199 121.921 11.328H118.759C118.773 11.794 118.924 12.149 119.217 12.395C119.484 12.615 119.829 12.725 120.252 12.725C120.72 12.725 121.147 12.651 121.531 12.502L121.696 13.23C121.246 13.424 120.717 13.521 120.104 13.521C119.37 13.521 118.791 13.306 118.372 12.876C117.952 12.446 117.744 11.869 117.744 11.145C117.744 10.434 117.938 9.84201 118.329 9.37001C118.738 8.86601 119.29 8.61401 119.987 8.61401C120.67 8.61401 121.188 8.86601 121.538 9.37001C121.821 9.77001 121.961 10.265 121.961 10.853ZM120.954 10.582C120.962 10.271 120.893 10.003 120.75 9.77701C120.567 9.48601 120.288 9.34001 119.911 9.34001C119.567 9.34001 119.286 9.48201 119.072 9.76701C118.897 9.99401 118.793 10.265 118.759 10.582H120.954Z" fill="white"/>
</g>
<defs>
<linearGradient id="paint0_linear_109_2791" x1="170.277" y1="8.70654" x2="150.325" y2="14.0558" gradientUnits="userSpaceOnUse">
<stop stop-color="#00A0FF"/>
<stop offset="0.00657" stop-color="#00A1FF"/>
<stop offset="0.2601" stop-color="#00BEFF"/>
<stop offset="0.5122" stop-color="#00D2FF"/>
<stop offset="0.7604" stop-color="#00DFFF"/>
<stop offset="1" stop-color="#00E3FF"/>
</linearGradient>
<linearGradient id="paint1_linear_109_2791" x1="182.388" y1="20" x2="158.04" y2="20" gradientUnits="userSpaceOnUse">
<stop stop-color="#FFE000"/>
<stop offset="0.4087" stop-color="#FFBD00"/>
<stop offset="0.7754" stop-color="#FFA500"/>
<stop offset="1" stop-color="#FF9C00"/>
</linearGradient>
<linearGradient id="paint2_linear_109_2791" x1="173.323" y1="22.2973" x2="157.439" y2="49.1979" gradientUnits="userSpaceOnUse">
<stop stop-color="#FF3A44"/>
<stop offset="1" stop-color="#C31162"/>
</linearGradient>
<linearGradient id="paint3_linear_109_2791" x1="155.683" y1="0.178806" x2="162.769" y2="12.193" gradientUnits="userSpaceOnUse">
<stop stop-color="#32A071"/>
<stop offset="0.0685" stop-color="#2DA771"/>
<stop offset="0.4762" stop-color="#15CF74"/>
<stop offset="0.8009" stop-color="#06E775"/>
<stop offset="1" stop-color="#00F076"/>
</linearGradient>
<clipPath id="clip0_109_2791">
<rect width="136.399" height="40" fill="white" transform="translate(148.343)"/>
</clipPath>
<clipPath id="clip1_109_2791">
<rect width="135.84" height="40" fill="white"/>
</clipPath>
</defs>
</svg>
