<svg xmlns="http://www.w3.org/2000/svg" width="64" height="64" shape-rendering="geometricPrecision" text-rendering="geometricPrecision" image-rendering="optimizeQuality" fill-rule="evenodd" clip-rule="evenodd" viewBox="0 0 640 640"><path fill="white" d="M282.216 458.935l-23.528-63.757s-38.114 42.532-95.233 42.532c-50.658 0-86.529-43.996-86.529-114.368 0-90.119 45.473-122.364 90.12-122.364 64.477 0 84.993 41.765 102.638 95.257l23.528 73.241c23.516 71.115 67.525 128.257 194.246 128.257 90.875 0 152.53-27.886 152.53-101.139 0-59.362-33.757-90.119-96.77-104.87l-46.866-10.24c-32.257-7.36-41.765-20.517-41.765-42.533 0-24.886 19.76-39.638 52.017-39.638 35.232 0 54.237 13.24 57.107 44.764l73.252-8.752c-5.881-66.012-51.355-93.131-126.108-93.131-66.012 0-130.502 24.886-130.502 104.883 0 49.879 24.237 81.355 85.005 96.001l49.88 11.752c37.346 8.764 49.866 24.237 49.866 45.485 0 27.119-26.374 38.115-76.241 38.115-74.009 0-104.883-38.883-122.376-92.364l-24.237-73.24C311.612 177.45 262.49 142.3 165.012 142.3 57.235 142.3-.002 210.427-.002 326.306c0 111.368 57.12 171.498 159.888 171.498 82.75 0 122.364-38.882 122.364-38.882l-.035.012z"/></svg>